<svg width="169" height="40" viewBox="0 0 169 40" fill="none" xmlns="http://www.w3.org/2000/svg">
<path fill-rule="evenodd" clip-rule="evenodd" d="M22.2385 5.54271C24.4963 8.36304 26.0608 7.62141 28.8162 6.11806C26.4651 5.75337 25.3366 4.21537 24.2784 2.77311C23.489 1.69717 22.7387 0.674516 21.549 0.232009C18.6687 -0.838693 16.594 2.02444 15.849 4.16304C17.0487 3.27633 19.6134 2.26314 22.2385 5.54271ZM80.6652 11.2583L88.6899 11.2682C90.6825 11.2781 90.8593 12.0485 90.8604 13.2219V13.9335C90.8593 15.1067 90.6825 15.8784 88.6899 15.8909H63.0955C62.219 15.8823 62.0219 15.8085 62.0132 15.2756C62.0132 15.2305 62.0183 15.1861 62.0236 15.1408L62.0283 15.0991L62.0219 6.00615C62.0283 4.53912 62.2138 3.9988 63.1105 3.91361H63.1459V3.55339V3.51707H60.2946V15.4708C60.2946 16.33 60.4575 16.8565 60.9259 17.1618C61.388 17.4619 62.1317 17.5432 63.291 17.5432H103.79C107.266 17.5406 107.383 15.0567 107.388 14.6926C107.388 14.4375 107.394 12.1601 107.394 12.1601C107.396 10.6903 107.586 10.1037 108.482 10.0224L108.515 10.0187V9.70842V9.67339H105.669V13.9285C105.66 15.1004 105.485 15.8784 103.492 15.8909H92.314C92.5691 15.3519 92.5868 14.8565 92.5868 14.7041V12.3813C92.5868 12.0124 92.4718 9.54323 88.9929 9.54085H78.1711V12.3839H78.5551H78.593V12.3538C78.6788 11.4494 79.1903 11.2682 80.6652 11.2583ZM110.1 15.8917V17.5402H115.048C118.532 17.5402 118.65 15.0563 118.65 14.6974V6.00438C118.656 4.53238 118.848 3.92567 119.747 3.84805L119.777 3.84308V3.55292V3.51789H116.918V13.9242C116.911 15.1012 116.738 15.8781 114.745 15.8868H114.136V6.00697C114.14 4.53865 114.331 3.97194 115.229 3.88935L115.263 3.88308V3.55551V3.51789H112.413L112.415 15.8917H110.1ZM120.701 17.5428L120.709 3.51815H123.558V3.55556V3.86712L123.521 3.8695C122.622 3.9495 122.433 4.53869 122.43 6.00701V17.5428H120.701ZM162.808 19.5896C162.808 19.0456 162.362 18.5978 161.806 18.5978C161.23 18.5978 160.787 19.0456 160.787 19.5896C160.787 20.1338 161.23 20.5779 161.806 20.5779C162.362 20.5779 162.808 20.1338 162.808 19.5896ZM100.205 6.86202C100.205 7.41229 100.65 7.8538 101.199 7.8538C101.781 7.8538 102.224 7.41229 102.226 6.86202C102.224 6.28667 101.781 5.84256 101.199 5.84018C100.65 5.84256 100.211 6.28667 100.205 6.86202ZM97.7878 6.86202C97.7878 7.41229 98.2385 7.8538 98.7902 7.8538C99.3675 7.8538 99.8146 7.41229 99.8146 6.86202C99.8146 6.28667 99.3675 5.84256 98.7902 5.84018C98.2385 5.84256 97.7878 6.28667 97.7878 6.86202ZM134.572 23.9427C133.898 23.9427 133.357 24.4869 133.357 25.1497C133.357 25.8175 133.898 26.3641 134.572 26.3641C135.245 26.3641 135.793 25.8175 135.793 25.1497C135.793 24.4869 135.245 23.9427 134.572 23.9427ZM144.085 17.5402C144.085 17.5402 142.48 17.5339 141.701 16.7159C140.922 17.5339 139.326 17.5402 139.326 17.5402L128.382 17.5428C127.58 17.5428 127.007 17.4615 126.633 17.1538C126.26 16.8461 126.104 16.322 126.104 15.4526L126.101 9.67292H127.72V15.09C127.734 15.7854 127.882 15.8781 128.849 15.8917L138.676 15.8829C140.665 15.8716 140.836 15.1012 140.844 13.9242L140.85 12.6974V3.51789H143.698V3.55292V3.83573H143.669C142.771 3.91703 142.576 4.53865 142.571 6.00697L142.576 12.6974L142.571 13.9242C142.584 15.1012 142.748 15.8781 144.747 15.8868H152.374C154.367 15.8781 154.531 15.1012 154.542 13.9242V9.63789H157.393V9.68048V9.95184H157.362C156.465 10.0368 156.273 10.6584 156.271 12.1244V13.9242C156.273 15.1012 156.451 15.8781 158.445 15.8868H163.217C165.205 15.8781 165.375 15.1012 165.383 13.9242L165.392 9.67292H168.238V9.70924V9.97065L168.201 9.97303C167.31 10.0519 167.117 10.6898 167.112 12.1594C167.112 12.1594 167.105 14.437 167.105 14.6935C167.105 15.0537 166.993 17.5402 163.635 17.5402H163.51H157.784C157.784 17.5402 156.185 17.5339 155.396 16.7209C154.673 17.475 153.249 17.5373 153.042 17.5463C153.026 17.547 153.017 17.5474 153.017 17.5477L144.085 17.5402ZM50.6634 15.8916H54.8052C56.7979 15.8828 56.9708 15.1074 56.9822 13.929V13.1725C56.9708 11.9967 56.7979 11.2211 54.8052 11.2138H51.4147L51.4097 9.56146H55.1058C58.5809 9.56535 58.697 12.038 58.7021 12.3995V14.707C58.697 15.0648 58.5809 17.5426 55.1058 17.5476L48.1668 17.5426V14.7658H48.2024H48.5899V14.7984C48.6746 15.6966 49.1884 15.8828 50.6634 15.8916ZM154.465 6.85873C154.466 7.40403 154.912 7.84814 155.491 7.85181C156.04 7.85181 156.483 7.40403 156.483 6.85873C156.483 6.27581 156.04 5.8369 155.491 5.8369C154.912 5.8369 154.466 6.27581 154.465 6.85873ZM143.513 27.5449C142.374 27.5462 141.005 27.9903 140.401 29.0721V24.0178H137.571V24.4368V24.4779L137.613 24.4868C138.493 24.5605 138.676 25.0321 138.683 26.4755L138.688 37.7149H140.401V32.1002C140.406 30.3466 141.334 29.0671 143.283 29.0671C144.511 29.0671 145.239 29.8163 145.239 30.9944V37.7149H146.955V31.1921C146.955 30.1263 146.756 29.2148 146.22 28.5657C145.686 27.9188 144.821 27.5449 143.513 27.5449ZM91.1091 27.7683H91.2252L87.2399 31.4094L91.4754 37.7143H89.2958L85.9343 32.5936L84.4557 33.9508V37.7143H82.7484L82.7334 26.4762C82.7307 25.0317 82.5528 24.505 81.6738 24.4263L81.6271 24.4213V24.3813V24.0172H84.4557V32.0109L88.9044 27.7683H91.1091ZM77.3141 27.5449C75.9453 27.5449 74.8139 28.0777 74.1105 29.207V27.7601H71.3793V28.1177V28.1553L71.4197 28.1626C72.3022 28.2491 72.4828 28.7719 72.4854 30.2241L72.4917 37.7149H74.2077V32.1002C74.2166 30.3466 75.1422 29.0671 77.0856 29.0584C78.3078 29.0671 79.0478 29.8163 79.0478 30.9944V37.7149H80.7677V31.1921C80.7677 30.1263 80.5631 29.2148 80.0251 28.5657C79.4885 27.9188 78.6197 27.5449 77.3141 27.5449ZM51.1843 36.1H55.6871C57.2328 36.0974 58.1987 35.1718 58.2024 33.7009C58.2024 31.9688 56.8058 31.4847 55.2854 31.4797H51.1843V36.1ZM54.774 25.6298H51.1843V29.865H54.774C56.8311 29.8561 57.6216 29.1459 57.6279 27.7351C57.6279 25.8864 56.3387 25.6311 54.774 25.6298ZM59.5397 27.3947C59.5397 28.8181 58.7885 29.9301 57.5989 30.4503C58.8049 30.8468 60.1079 32.1162 60.1079 33.7586C60.1004 35.7809 58.6709 37.7074 55.932 37.7147H49.276V26.4754C49.2622 25.0321 49.0904 24.6531 48.2079 24.5705L48.1662 24.564V24.0177H54.2767L54.346 24.0176C55.5391 24.0175 57.0857 24.0172 57.9058 24.5167C58.8224 25.0557 59.5397 26.0425 59.5397 27.3947ZM163.599 36.4197C161.532 36.4197 160.596 34.6638 160.59 32.8301C160.596 30.909 161.321 29.0679 163.504 29.0591C165.712 29.0679 166.569 30.8191 166.578 32.7464C166.569 34.5912 165.743 36.4197 163.599 36.4197ZM165.407 24.0173V24.0586V24.4361V24.4777L165.45 24.4863C166.326 24.56 166.506 25.0316 166.517 26.4764V28.984C165.748 27.8958 164.32 27.5468 163.325 27.5445C160.284 27.5505 158.777 29.9133 158.777 32.7189C158.777 35.5092 160.301 37.9419 163.37 37.9445C164.665 37.9445 165.926 37.5118 166.517 36.5161L166.52 37.7142H168.237V24.0173H165.407ZM118.361 34.6563V34.6877L118.361 34.7037C118.366 35.1589 118.376 36.0863 120.142 36.0998H126.025V37.7147L120.091 37.7121C116.714 37.7205 116.558 36.2072 116.463 35.2869L116.454 35.1992L116.45 35.1367L116.448 26.4764C116.429 25.0319 116.267 24.7028 115.383 24.6191L115.34 24.6141V24.0174H125.972V25.6297H118.361V29.8647H124.982V31.4794H118.361V34.6563ZM135.526 35.3534L135.523 27.7688H132.695V28.2016V28.244L132.74 28.2453C133.586 28.3266 133.778 28.772 133.803 30.0866L133.808 35.5121C133.808 36.4254 133.976 36.9796 134.372 37.3009C134.764 37.6274 135.362 37.7074 136.208 37.7074H136.951V36.1826H136.7C135.685 36.1638 135.538 36.0864 135.526 35.3534ZM108.711 24.0176V35.3621C108.73 36.0927 108.878 36.1753 109.894 36.1954H110.129V37.7149H109.391C108.553 37.7149 107.951 37.631 107.559 37.3045C107.163 36.9794 106.994 36.4254 106.994 35.5173V26.4754C106.988 25.0321 106.8 24.5069 105.93 24.428L105.882 24.4267V24.3817V24.0176H108.711ZM132.958 9.38224C133.015 9.24343 133.104 9.13078 133.23 9.04451C133.334 8.9658 133.432 8.9258 133.545 8.90461C133.655 8.88948 133.831 8.87824 134.079 8.87824H135.699V9.61229H134.02C133.873 9.61229 133.75 9.63737 133.658 9.68861C133.533 9.75132 133.467 9.87629 133.467 10.0601C133.467 10.249 133.526 10.3915 133.658 10.4929C133.781 10.5831 133.966 10.6305 134.204 10.6305H135.699V11.3559H132.369V10.6305H133.299C133.135 10.5316 133.023 10.408 132.962 10.2752C132.902 10.1377 132.866 9.99391 132.866 9.84386C132.866 9.6737 132.895 9.52494 132.958 9.38224ZM63.2684 35.0157C63.2684 36.0477 64.1549 36.4129 65.1361 36.4155C67.26 36.4129 68.1061 35.0957 68.1124 34.2328H68.1061V32.6607C67.6279 32.9605 66.892 33.0567 66.1285 33.1564L66.1284 33.1564C65.8254 33.196 65.5181 33.2362 65.2208 33.2899C64.1549 33.4849 63.2684 33.8414 63.2684 35.0157ZM69.8272 35.4396C69.8394 36.1569 69.8437 36.413 70.3045 36.4155C70.4269 36.4155 70.5697 36.4006 70.7792 36.3206L70.8373 36.2979V37.6538L70.8236 37.6626C70.5204 37.8401 70.1517 37.9377 69.6289 37.9377C68.8031 37.9377 68.2539 37.4834 68.2109 36.483C67.3117 37.4834 66.1223 37.9377 64.7698 37.9377C62.9628 37.9377 61.4627 37.1121 61.459 35.1234C61.4551 32.8682 63.1662 32.3643 64.8418 32.054C65.2259 31.9809 65.5954 31.9277 65.9391 31.8781L65.9393 31.8781L65.9397 31.878L65.9398 31.878L65.9398 31.878L65.9399 31.878C67.2206 31.6934 68.1427 31.5605 68.1288 30.6494C68.1262 29.276 67.0098 29.0585 65.9771 29.0559C64.9479 29.0585 64.1385 29.2925 63.7748 30.0103C63.7168 30.1316 63.6397 30.3556 63.8128 30.468C63.8835 30.5018 63.9529 30.5182 63.9983 30.5245C64.009 30.5245 64.0188 30.5266 64.0286 30.5288C64.0384 30.531 64.0481 30.5331 64.0588 30.5331V30.9208H62.0082C61.8718 30.5982 61.9135 30.2267 61.9729 29.9841C62.4502 28.1967 64.1612 27.5338 66.0806 27.5374C67.8511 27.5452 69.8258 27.9426 69.8258 30.2853V35.3537L69.8272 35.4396ZM99.7723 36.4155C98.79 36.4129 97.9086 36.0477 97.9086 35.0157C97.9086 33.8414 98.79 33.4849 99.8594 33.2899C100.156 33.2361 100.465 33.1959 100.769 33.1562L100.769 33.1562L100.769 33.1562L100.769 33.1561L100.769 33.1561L100.769 33.1561L100.769 33.1561L100.769 33.1561L100.769 33.1561L100.77 33.1561L100.77 33.1561L100.77 33.1561L100.77 33.156L100.77 33.156L100.77 33.156L100.77 33.156C101.534 33.0564 102.272 32.9601 102.745 32.6607V34.2328H102.752C102.745 35.0957 101.897 36.4129 99.7723 36.4155ZM104.937 36.4155C104.476 36.413 104.475 36.1514 104.47 35.4163L104.47 35.3537V30.2853C104.463 27.9426 102.49 27.5452 100.714 27.5374C98.7974 27.5338 97.0891 28.1967 96.6117 29.9841C96.551 30.2267 96.5117 30.5982 96.6421 30.9208H98.6964V30.5331C98.685 30.5331 98.6747 30.5307 98.665 30.5284C98.6565 30.5264 98.6485 30.5245 98.6407 30.5245C98.5903 30.5182 98.5235 30.5018 98.4491 30.468C98.2797 30.3556 98.3517 30.1316 98.4071 30.0103C98.776 29.2925 99.5804 29.0585 100.618 29.0559C101.644 29.0585 102.766 29.276 102.766 30.6494C102.778 31.5601 101.856 31.6933 100.58 31.8778C100.236 31.9274 99.867 31.9808 99.4833 32.054C97.8049 32.3643 96.0966 32.8682 96.0966 35.1234C96.0966 37.1121 97.5993 37.9377 99.4086 37.9377C100.759 37.9377 101.949 37.4834 102.847 36.483C102.891 37.4834 103.439 37.9377 104.268 37.9377C104.789 37.9377 105.162 37.8401 105.461 37.6626L105.476 37.6538V36.2979L105.418 36.3206C105.206 36.4006 105.064 36.4155 104.937 36.4155ZM150.295 35.0157C150.295 36.0477 151.177 36.4129 152.159 36.4155C154.276 36.4129 155.134 35.0957 155.138 34.2328H155.134V32.6607C154.656 32.9606 153.918 33.0567 153.152 33.1565C152.848 33.1961 152.539 33.2362 152.241 33.2899C151.179 33.4849 150.298 33.8414 150.295 35.0157ZM156.86 35.4127C156.864 36.1505 156.865 36.413 157.331 36.4155C157.454 36.4155 157.601 36.4006 157.81 36.3206L157.868 36.2979V37.6538L157.846 37.6626C157.551 37.8401 157.181 37.9377 156.654 37.9377C155.826 37.9377 155.272 37.4834 155.232 36.483C154.338 37.4834 153.143 37.9377 151.798 37.9377C149.992 37.9377 148.486 37.1121 148.483 35.1234C148.483 32.8682 150.187 32.3643 151.863 32.054C152.248 31.981 152.618 31.9277 152.961 31.8782C154.243 31.6935 155.165 31.5607 155.152 30.6494C155.152 29.276 154.03 29.0585 153 29.0559C151.971 29.0585 151.163 29.2925 150.793 30.0103C150.74 30.1316 150.665 30.3556 150.838 30.468C150.91 30.5018 150.976 30.5182 151.021 30.5245C151.046 30.5245 151.064 30.5331 151.082 30.5331V30.9208H149.031C148.899 30.5982 148.939 30.2267 148.995 29.9841C149.476 28.1967 151.183 27.5338 153.097 27.5374C154.873 27.5452 156.852 27.9426 156.86 30.2853V35.3537L156.86 35.4127ZM130.137 35.3534V28.9195H131.632V27.7627H130.137V25.5324H128.417V27.7489H127.037V28.2252C127.037 28.2252 128.366 28.1465 128.417 29.4684V35.5035C128.417 36.4127 128.587 36.9681 128.98 37.3009C129.38 37.6274 129.977 37.7074 130.816 37.7074H132.108V36.1889H131.317C130.305 36.1727 130.149 36.0838 130.137 35.3534ZM4.92994 7.05648C2.29978 8.64113 3.24803 12.0396 4.46651 13.9544C4.52327 12.4673 5.32395 9.82557 9.52773 9.82319C13.1467 9.81562 13.5355 8.12848 14.0697 5.04654C12.3205 6.6552 10.4105 6.57916 8.61982 6.50788C7.28479 6.45473 6.01611 6.40422 4.92994 7.05648ZM37.153 18.0537C34.2463 16.8729 32.6803 16.1287 33.4469 12.6091C34.3473 8.5103 31.9329 7.16825 30.4858 6.79419C32.6211 6.02014 36.158 5.81754 37.1467 8.72306C37.5556 9.92316 37.2333 11.1498 36.8943 12.4405C36.4408 14.167 35.9571 16.0081 37.153 18.0537ZM34.9065 25.9562C31.6472 27.5186 32.0198 29.1995 32.8685 32.2127C33.7523 30.0133 35.5095 29.2648 37.1578 28.5628C38.3872 28.0392 39.556 27.5414 40.2567 26.4866C41.9502 23.924 39.6241 21.2622 37.6973 20.0602C38.2932 21.4261 38.6997 24.1515 34.9065 25.9562ZM19.1993 37.7003C21.0316 35.1639 22.1226 33.8166 25.3729 35.3863C29.1587 37.2151 31.0401 35.1963 31.7384 33.8769C31.9986 36.1306 31.3621 39.6054 28.3023 39.8817C27.0376 39.9966 25.9159 39.3965 24.7355 38.765C23.1559 37.92 21.4714 37.0188 19.1993 37.7003ZM12.1099 33.8412C11.2778 30.3354 9.54413 30.3404 6.40602 30.5242C8.37844 31.854 8.73965 33.7245 9.07822 35.4777C9.33096 36.7864 9.57109 38.0299 10.4594 38.9343C12.6061 41.1343 15.7088 39.4347 17.296 37.8098C15.8313 38.1 13.0758 37.93 12.1099 33.8412ZM4.1918 15.8871C6.27033 18.2348 7.34234 19.5907 5.07957 22.4034C2.4492 25.6767 4.00996 27.9483 5.14266 28.9237C2.88119 28.6711 -0.373042 27.2804 0.034938 24.2471C0.205543 22.9915 1.04136 22.0356 1.92049 21.0302C3.09755 19.6841 4.35224 18.2492 4.1918 15.8871ZM10.8135 14.2898C13.3679 13.6269 13.8503 12.5538 13.6711 9.54455C12.9587 11.0947 11.5151 11.3004 10.0322 11.5117C8.8182 11.6847 7.57781 11.8615 6.69045 12.7826C4.97842 14.55 5.90898 16.6488 8.49002 18.4637C7.90784 17.079 8.22982 14.969 10.8135 14.2898ZM25.0777 8.57975C22.83 10.5921 21.6796 10.8848 19.5671 9.31013C17.4318 7.71553 15.5641 8.77975 14.8468 10.0894C14.665 6.95488 15.7346 4.92872 18.1831 5.15748C19.4672 5.27707 20.3816 6.13542 21.275 6.97405C22.3635 7.99584 23.4209 8.98837 25.0777 8.57975ZM28.8827 12.8924C28.9888 15.5166 29.9383 16.2195 32.9247 16.6772C31.5624 15.659 31.669 14.2166 31.7786 12.7323C31.8686 11.5144 31.9606 10.2684 31.2452 9.20522C29.8739 7.16392 27.6212 7.62425 25.2864 9.73538C26.7714 9.46533 28.774 10.2346 28.8827 12.8924ZM31.4016 27.9893C29.9329 25.3576 29.9076 24.1781 31.9255 22.486C33.9724 20.7736 33.3448 18.7186 32.2287 17.7292C35.3375 18.2646 37.0799 19.7506 36.3059 22.0808C35.8995 23.2956 34.8537 23.9891 33.8316 24.6668C32.586 25.4927 31.3758 26.2952 31.4016 27.9893ZM26.2696 30.8466C23.6722 30.3398 22.7641 31.0953 21.61 33.8722C22.9268 32.794 24.3141 33.2366 25.7405 33.6917C26.9103 34.065 28.1065 34.4466 29.3117 34.0047C31.6299 33.1517 31.7032 30.8678 30.1916 28.1135C30.1021 29.6058 28.8821 31.3656 26.2696 30.8466ZM10.9219 29.9429C13.8162 29.0748 14.9855 29.3001 16.2104 31.6277C17.4692 33.9704 19.6032 33.8052 20.8243 32.9323C19.6375 35.8353 17.8052 37.2212 15.6749 35.9665C14.5708 35.3147 14.114 34.1513 13.6673 33.0139C13.1225 31.6265 12.5928 30.2776 10.9219 29.9429ZM9.37703 24.239C10.4593 21.8299 9.91991 20.7944 7.44627 19.0545C8.21488 20.5718 7.47389 21.8166 6.71157 23.0971C6.08633 24.1474 5.44675 25.2218 5.61396 26.4904C5.92852 28.9244 8.15222 29.5159 11.1866 28.6543C9.74441 28.234 8.28974 26.6617 9.37703 24.239ZM13.5086 17.2314C13.3874 17.3142 13.2628 17.3992 13.1371 17.489C11.8326 18.4196 11.9096 19.3439 12.4728 20.3605C10.0826 19.9054 9.21115 18.1143 10.3375 16.6446C10.83 16.002 11.4467 15.7811 12.0527 15.564C12.9399 15.2462 13.8039 14.9367 14.2204 13.324C15.5151 15.8623 14.6613 16.4449 13.5086 17.2314ZM18.4642 13.1028C18.6148 13.1456 18.7609 13.1906 18.9031 13.2344C20.239 13.646 21.2308 13.9516 22.4039 11.3605C20.8865 12.0376 20.1076 11.5545 19.3071 11.058C18.7593 10.7182 18.2013 10.3721 17.3896 10.3873C15.5396 10.4124 14.6684 12.2185 15.8024 14.3661C16.2556 13.2917 16.9312 12.66 18.4642 13.1028ZM25.3586 14.8633C25.3039 14.7267 25.2478 14.5863 25.1871 14.4437C24.5569 12.9727 23.6427 12.8478 22.5203 13.1753C23.4773 10.9453 25.417 10.4776 26.609 11.8984C27.1338 12.5147 27.218 13.1652 27.3008 13.8048C27.4217 14.7383 27.5397 15.6487 29.0196 16.3961C26.2616 17.1193 25.8781 16.1611 25.3586 14.8633ZM28.1637 20.9566L28.1637 20.9566C27.4574 22.1666 26.9321 23.0667 29.1977 24.8004C28.8797 23.169 29.5258 22.5171 30.1896 21.8473C30.6434 21.3895 31.1055 20.9233 31.2736 20.1301C31.6639 18.3254 30.1019 17.0696 27.7557 17.6912C28.6989 18.3717 29.1587 19.1734 28.3883 20.5654C28.3136 20.6999 28.2378 20.8297 28.164 20.9561L28.1638 20.9565L28.1637 20.9566ZM25.0996 27.0177C25.2431 26.9965 25.3906 26.9748 25.5411 26.9495C27.1156 26.6894 27.4529 25.8176 27.3998 24.6669C29.3469 26.1077 29.3393 28.1114 27.6801 28.9395C26.958 29.3006 26.3078 29.2291 25.669 29.1589C24.7327 29.0559 23.8208 28.9557 22.7429 30.2241C22.6857 27.3731 23.7113 27.2221 25.0996 27.0177ZM18.4705 28.3484L18.4704 28.3483C17.4376 27.3979 16.6744 26.6955 14.4956 28.5362C16.1582 28.5747 16.6578 29.3446 17.1709 30.1352C17.5213 30.6753 17.8781 31.225 18.616 31.558C20.3043 32.3247 21.8574 31.0613 21.7463 28.6399C20.8891 29.4168 20.0013 29.6992 18.8016 28.6488C18.6871 28.5477 18.5773 28.4467 18.4705 28.3484ZM13.3775 23.9938C13.366 24.1408 13.3542 24.2918 13.3454 24.4467C13.2533 26.04 14.0223 26.5615 15.1662 26.7657C13.3238 28.344 11.3756 27.8937 10.9399 26.0952C10.746 25.3094 10.9595 24.689 11.1693 24.0793C11.4761 23.1876 11.7751 22.3187 10.7808 20.9884C13.5669 21.5689 13.4864 22.5996 13.3775 23.9938Z" fill="#282D3C"/>
</svg>
