<svg width="64" height="64" viewBox="0 0 64 64" fill="none" xmlns="http://www.w3.org/2000/svg">
<rect width="64" height="64" rx="2" fill="#F98232"/>
<rect x="24" y="41" width="16" height="2" fill="#DC5F0A"/>
<rect x="24" y="44" width="16" height="2" fill="#DC5F0A"/>
<rect x="17" y="11" width="30" height="42" rx="1" stroke="white" stroke-width="2"/>
<path fill-rule="evenodd" clip-rule="evenodd" d="M32 35C27.5817 35 24 31.4183 24 27C24 25.3643 24.4909 23.8433 25.3333 22.5763V22.5556H25.3472C26.7823 20.4116 29.2263 19 32 19C34.7737 19 37.2177 20.4116 38.6528 22.5556H38.6667V22.5763C39.5091 23.8433 40 25.3643 40 27C40 31.4183 36.4183 35 32 35ZM37.5514 22.5556C36.6757 21.4631 35.4841 20.6347 34.1152 20.2088C34.5973 20.8107 35.0107 21.6122 35.3264 22.5556H37.5514ZM35.6445 23.6984H38.2998C38.7531 24.5614 39.0341 25.529 39.0974 26.5556H35.9939C35.9662 25.5413 35.8439 24.5774 35.6445 23.6984ZM32.6984 20.095V22.5556H34.3858C33.9439 21.3503 33.3416 20.473 32.6984 20.095ZM31.5556 22.5556V19.9728C30.8186 20.2493 30.1139 21.1928 29.6142 22.5556H31.5556ZM31.5556 23.6984V26.5556H28.8954C28.9255 25.5234 29.0597 24.5574 29.2692 23.6984H31.5556ZM32.6984 26.5556V23.6984H34.7308C34.9403 24.5574 35.0745 25.5234 35.1046 26.5556H32.6984ZM31.5556 27.6984H28.9049C28.9427 28.5173 29.0459 29.2916 29.1997 30H31.5556V27.6984ZM32.6984 30V27.6984H35.0951C35.0573 28.5173 34.9541 29.2916 34.8003 30H32.6984ZM31.5556 31.1429H29.5092C30.0123 32.6675 30.7654 33.7307 31.5556 34.0272V31.1429ZM32.6984 33.905V31.1429H34.4908C34.0419 32.5032 33.3941 33.4962 32.6984 33.905ZM28.6736 22.5556C28.9893 21.6122 29.4027 20.8107 29.8848 20.2088C28.5159 20.6347 27.3243 21.4631 26.4486 22.5556H28.6736ZM25.7002 23.6984H28.3555C28.1561 24.5774 28.0338 25.5413 28.0061 26.5556H24.9026C24.9659 25.529 25.2469 24.5614 25.7002 23.6984ZM34.1152 33.7912C35.6075 33.327 36.8889 32.3844 37.7803 31.1429H35.4226C35.0967 32.2174 34.6479 33.1262 34.1152 33.7912ZM35.7092 30H38.4492C38.7806 29.2889 38.9978 28.5138 39.0772 27.6984H35.985C35.95 28.5059 35.8552 29.2791 35.7092 30ZM28.015 27.6984C28.0499 28.5059 28.1448 29.2791 28.2908 30H25.5508C25.2194 29.2889 25.0022 28.5138 24.9228 27.6984H28.015ZM28.5774 31.1429H26.2197C27.1111 32.3844 28.3925 33.327 29.8848 33.7912C29.3521 33.1262 28.9033 32.2174 28.5774 31.1429Z" fill="#DC5F0A"/>
</svg>
