<svg width="40" height="40" viewBox="0 0 40 40" fill="none" xmlns="http://www.w3.org/2000/svg">
<path fill-rule="evenodd" clip-rule="evenodd" d="M21.485 5.49985C23.6665 8.29828 25.1778 7.56301 27.8392 6.07141C25.5679 5.70951 24.4777 4.18314 23.4554 2.75187C22.6928 1.68414 21.9679 0.66933 20.8188 0.230412C18.036 -0.832283 16.0315 2.00923 15.3116 4.13079C16.471 3.25096 18.9488 2.2457 21.485 5.49985ZM9.2045 9.74728C12.7006 9.73962 13.0771 8.06611 13.5928 5.00727C11.9026 6.60327 10.0575 6.52809 8.32763 6.45761C7.03783 6.40506 5.81214 6.35512 4.7626 7.00246C2.22168 8.57448 3.13735 11.9464 4.31464 13.8468C4.37017 12.3715 5.14374 9.75015 9.2045 9.74728ZM35.8947 17.9144C33.0856 16.7426 31.5732 16.0044 32.3139 12.5119C33.1834 8.44495 30.8505 7.11323 29.453 6.74177C31.5158 5.97394 34.9329 5.77289 35.8881 8.65557C36.283 9.84644 35.9718 11.0636 35.6443 12.3442C35.2062 14.0576 34.739 15.8846 35.8947 17.9144ZM33.7239 25.7561C30.575 27.3061 30.9345 28.9748 31.7542 31.9637C32.6085 29.7819 34.306 29.0394 35.8982 28.3429C37.086 27.8233 38.2152 27.3294 38.8923 26.2826C40.5289 23.7389 38.2816 21.0984 36.4201 19.9055C36.996 21.2611 37.3885 23.9648 33.7239 25.7561ZM18.5486 37.4091C20.3188 34.8931 21.3728 33.5557 24.5132 35.1133C28.1702 36.9285 29.9884 34.9247 30.6631 33.616C30.9144 35.8515 30.2989 39.3 27.343 39.5738C26.1215 39.688 25.0379 39.0925 23.8975 38.4659C22.3715 37.6273 20.744 36.733 18.5486 37.4091ZM11.6992 33.58C10.8955 30.1009 9.22041 30.1066 6.18918 30.2885C8.09439 31.6084 8.4433 33.464 8.77036 35.2035C9.01455 36.5022 9.24656 37.7361 10.105 38.634C12.1792 40.8168 15.1765 39.1299 16.7095 37.5177C15.2941 37.8059 12.6328 37.6374 11.6992 33.58ZM4.04982 15.7645C6.05809 18.0938 7.09328 19.439 4.90715 22.2307C2.36623 25.4791 3.87384 27.7328 4.96832 28.7007C2.78313 28.4498 -0.361023 27.0703 0.0332897 24.0602C0.198265 22.8142 1.00583 21.8655 1.8552 20.8677C2.99234 19.5318 4.20443 18.1079 4.04982 15.7645ZM10.4471 14.1799C12.9156 13.5221 13.3814 12.4566 13.2082 9.47146C12.52 11.0091 11.1254 11.2133 9.69265 11.4231C8.51959 11.5948 7.32096 11.7703 6.46351 12.6844C4.80909 14.4384 5.70876 16.5207 8.20263 18.3215C7.63986 16.9477 7.95136 14.8539 10.4471 14.1799ZM24.2276 8.5135C22.0566 10.5106 20.9451 10.8007 18.9039 9.23824C16.8411 7.65568 15.037 8.71263 14.3435 10.0118C14.1684 6.90127 15.2008 4.89076 17.5667 5.11766C18.8076 5.23635 19.691 6.08815 20.5542 6.92034C21.6057 7.93417 22.627 8.91888 24.2276 8.5135ZM27.904 12.7929C28.0065 15.397 28.9241 16.094 31.8095 16.5487C30.4934 15.538 30.5961 14.1069 30.7019 12.6342C30.7887 11.4258 30.8775 10.1892 30.1861 9.13379C28.862 7.10892 26.6853 7.56559 24.4295 9.66035C25.8646 9.39228 27.7995 10.1563 27.904 12.7929ZM31.1367 17.5926C34.1397 18.124 35.8233 19.5984 35.076 21.9104C34.6833 23.1155 33.6731 23.8035 32.6858 24.4759C31.4823 25.2956 30.3129 26.092 30.3377 27.7735C28.9186 25.1617 28.8941 23.9918 30.844 22.3125C32.8212 20.6132 32.2152 18.574 31.1367 17.5926ZM28.3184 33.7422C30.5582 32.8958 30.6288 30.6297 29.1682 27.8964C29.0826 29.3775 27.9034 31.1237 25.3794 30.6087C22.8696 30.106 21.9925 30.8557 20.8773 33.611C22.1497 32.5412 23.49 32.9803 24.8681 33.4319C25.9983 33.8022 27.154 34.1809 28.3184 33.7422ZM20.1193 32.6782C18.9721 35.559 17.2019 36.9338 15.1438 35.6892C14.0771 35.0423 13.6357 33.8878 13.2042 32.7592C12.6779 31.3825 12.1662 30.0442 10.5522 29.7123C13.3482 28.8506 14.4775 29.0737 15.6614 31.3838C16.8772 33.7084 18.9391 33.5447 20.1193 32.6782ZM10.8073 28.4331C9.41455 28.0157 8.00857 26.4561 9.05882 24.0521C10.1044 21.6615 9.58394 20.6343 7.1936 18.9071C7.93661 20.4131 7.22055 21.6483 6.48391 22.919C5.87981 23.961 5.26187 25.027 5.42343 26.2857C5.72739 28.7012 7.87588 29.288 10.8073 28.4331ZM12.05 20.2042C9.74054 19.7514 8.89921 17.9745 9.9871 16.5164C10.4629 15.8789 11.0587 15.6596 11.6441 15.4442C12.5014 15.1286 13.3362 14.8214 13.7383 13.221C14.9889 15.7397 14.1647 16.3175 13.0513 17.098L13.0513 17.098C12.934 17.1803 12.8134 17.2648 12.6918 17.3541C11.4317 18.277 11.506 19.1942 12.05 20.2042ZM18.2625 13.1325L18.2626 13.1325C19.5529 13.5404 20.5113 13.8434 21.645 11.2729C20.1792 11.9446 19.4266 11.4653 18.6533 10.9728C18.1239 10.6356 17.5848 10.2923 16.8003 10.3078C15.0132 10.3318 14.1719 12.124 15.2673 14.2551C15.7049 13.1895 16.3571 12.5625 17.8384 13.0019C17.9839 13.0444 18.1251 13.089 18.2625 13.1325ZM24.3335 14.3321C23.7246 12.873 22.8419 12.7486 21.7568 13.0741C22.6819 10.8606 24.5556 10.3963 25.7075 11.8065C26.2145 12.4181 26.296 13.0635 26.3761 13.6982C26.493 14.6245 26.6071 15.5279 28.0367 16.2698C25.3709 16.9872 25.0005 16.0361 24.4987 14.7475C24.446 14.6123 24.3919 14.4733 24.3335 14.3321ZM26.8153 17.5545C27.7263 18.2305 28.1705 19.0251 27.4261 20.4066C27.3538 20.5403 27.2804 20.6694 27.2091 20.7951C26.5271 21.9958 26.0196 22.8892 28.2081 24.6095C27.9013 22.9908 28.5255 22.3439 29.1666 21.6793C29.6051 21.2249 30.0515 20.7622 30.2136 19.9748C30.5909 18.1835 29.0815 16.938 26.8153 17.5545ZM24.6761 26.7416C26.1968 26.4831 26.5225 25.6186 26.4716 24.4764C28.3529 25.9068 28.3453 27.8943 26.7427 28.7167C26.0449 29.0751 25.4167 29.004 24.7995 28.9342C23.8949 28.8318 23.0139 28.7321 21.9723 29.9909C21.9169 27.1618 22.9077 27.012 24.25 26.8091L24.2502 26.8091C24.3887 26.7882 24.5309 26.7667 24.6761 26.7416ZM21.0094 28.4191C20.1813 29.1898 19.323 29.4703 18.1645 28.4277C18.0536 28.3273 17.9474 28.2269 17.8439 28.1291L17.8439 28.1291C16.8461 27.1866 16.1083 26.4898 14.004 28.3157C15.6103 28.3538 16.0929 29.1178 16.5885 29.9024C16.927 30.4384 17.2717 30.9839 17.9848 31.3142C19.6166 32.0754 21.1167 30.8221 21.0094 28.4191ZM14.6522 26.5592C12.8726 28.1255 10.9895 27.6784 10.5689 25.8938C10.3816 25.1144 10.5879 24.4989 10.7907 23.8939C11.0872 23.0091 11.3763 22.1467 10.4155 20.8264C13.1066 21.4022 13.0292 22.4243 12.9243 23.8077C12.9132 23.954 12.9018 24.1044 12.8933 24.2586C12.8039 25.8393 13.5474 26.3562 14.6522 26.5592Z" fill="white"/>
</svg>
